<?xml version="1.0" encoding="utf-8"?>
<!-- Generator: Adobe Illustrator 19.1.0, SVG Export Plug-In . SVG Version: 6.00 Build 0)  -->
<svg version="1.1" id="Layer_1" xmlns="http://www.w3.org/2000/svg" xmlns:xlink="http://www.w3.org/1999/xlink" x="0px" y="0px"
	 viewBox="0 0 337.6 232.7" style="enable-background:new 0 0 337.6 232.7;" xml:space="preserve">
<style type="text/css">
	.st0{fill:#FFFFFF;}
	.st1{fill:none;}
</style>
<g>
	<path d="M0,206.7C0,146.4,0,86,0,25.7c0.1-0.8,0.3-1.6,0.4-2.4c0.8-7,4.1-12.7,9.5-17.2C15.4,1.5,21.7,0,28.7,0
		C114.8,0,201,0,287.1,0c7.7,0,15.5-0.1,23.2,0c15.8,0.1,27.3,11.3,27.3,26.6c0.1,59.8,0,119.6,0,179.4c0,9.1-4,16.3-11.3,21.7
		c-4.1,3-8.9,4.2-13.9,4.9c-95.7,0-191.3,0-287,0c-0.7-0.1-1.5-0.3-2.2-0.4c-8.4-1.2-14.8-5.4-19.3-12.6
		C1.5,215.7,0.6,211.3,0,206.7z M118.9,220.1c1.4,0,2.5,0,3.5,0c48.1,0,96.1,0,144.2,0c14.5,0,29,0,43.5,0c9.3,0,15.1-5.9,15.1-15.2
		c0-32.2,0-64.3,0-96.5c0-1-0.1-1.9-0.1-2.8c-57.4,0-114.3,0-171.6,0c4.7,4.7,9,9.2,13.5,13.5c1.6,1.5,2.2,3.2,2,5.3
		c-0.7,8.5-1.3,16.9-2,25.4c-0.3,3.3-0.6,6.6-0.9,10c-15.8-17.2-31.4-34.2-47.2-51.4C118.9,145.9,118.9,182.8,118.9,220.1z
		 M325.2,81.7c0-1.3,0-2.3,0-3.3c0-16.8,0-33.7,0-50.5c0-9.8-5.7-15.5-15.5-15.5c-62.7,0-125.5,0-188.2,0c-0.9,0-1.7,0.1-2.6,0.1
		c0,23.2,0,46,0,69.3c1.2-0.8,2.1-1.4,2.9-2.1c3.5-2.7,6.8-5.6,10.4-8.2c8-5.7,16.5-10.3,26.7-10.9c3.9-0.2,4.5,0.2,5.6,3.9
		c1.5,4.8,3.3,9.4,4.9,14.1c0.8,2.3,2.1,2.9,4.5,2.9c49.4-0.1,98.8-0.1,148.2-0.1C323,81.7,323.9,81.7,325.2,81.7z M94.7,220
		c0-36.1,0-71.8,0-107.6c-14.9,15-29.6,29.9-44.5,44.9c0-0.6,0-1.2,0-1.7c-0.2-11.7-0.4-23.5-0.8-35.2c-0.1-2.2,0.6-3.8,2.2-5.3
		c3.1-3,6-6.1,9.3-9.4c-16.4,0-32.3,0-48.3,0c0,0.9-0.1,1.5-0.1,2.2c0,32.2,0,64.5,0,96.7c0,9.8,5.9,15.5,15.6,15.6
		c21.3,0,42.7,0,64,0C93,220.1,93.8,220.1,94.7,220z M94.8,12.6c-0.9-0.1-1.7-0.1-2.4-0.1c-21.5,0-43,0-64.5,0
		c-1.6,0-3.4,0.1-4.9,0.6c-6.6,1.8-10.4,7.2-10.4,14.9c0,17.2,0,34.3,0,51.5c0,0.7,0.1,1.4,0.2,2.3c9.7,0,19.2-0.1,28.7,0.1
		c2.3,0,3.1-0.9,3.5-2.9c0.7-3.3,1.2-6.5,2.2-9.7c1.4-4.8,3.5-6.2,8.4-5.2c12,2.4,23.8,5.6,33.9,13.2c1.5,1.2,3.4,1.9,5.4,3
		C94.8,57.3,94.8,35.1,94.8,12.6z"/>
	<path class="st0" d="M312.5,232.7c5-0.7,9.8-1.9,13.9-4.9c7.3-5.4,11.3-12.6,11.3-21.7c0-59.8,0.1-119.6,0-179.4
		c0-15.3-11.6-26.5-27.3-26.6c-7.7-0.1-15.5,0-23.2,0C201,0,114.8,0,28.7,0C21.7,0,15.4,1.5,9.9,6c-5.4,4.5-8.7,10.2-9.5,17.2
		c-0.1,0.8-0.3,1.6-0.4,2.4C0,17,0,8.4,0-0.3c112.7,0,225.3,0,338,0c0,77.7,0,155.3,0,233C329.5,232.7,321,232.7,312.5,232.7z"/>
	<path class="st0" d="M0,206.7c0.6,4.6,1.5,9,4,13c4.5,7.2,10.9,11.4,19.3,12.6c0.7,0.1,1.5,0.3,2.2,0.4c-8.5,0-17,0-25.5,0
		C0,224,0,215.4,0,206.7z"/>
	<path class="st1" d="M325.2,81.7c-1.3,0-2.2,0-3.1,0c-49.4,0-98.8,0-148.2,0.1c-2.4,0-3.7-0.6-4.5-2.9c-1.6-4.7-3.4-9.4-4.9-14.1
		c-1.1-3.7-1.7-4.1-5.6-3.9c-10.1,0.6-18.6,5.2-26.7,10.9c-3.6,2.5-6.9,5.4-10.4,8.2c-0.8,0.6-1.7,1.2-2.9,2.1c0-23.3,0-46.2,0-69.3
		c0.8,0,1.7-0.1,2.6-0.1c62.7,0,125.5,0,188.2,0c9.9,0,15.5,5.7,15.5,15.5c0,16.8,0,33.7,0,50.5C325.2,79.4,325.2,80.4,325.2,81.7z"
		/>
</g>
</svg>
